<svg xmlns="http://www.w3.org/2000/svg" viewBox="0 0 390 914" width="390" height="914" font-family="-apple-system, Helvetica, Arial, sans-serif">
  <title>v0.2 After one 90° tap</title>
  <rect x="0" y="0" width="390" height="844" rx="40" fill="#ffffff" stroke="#111827" stroke-width="3"/>
  <rect x="130" y="14" width="130" height="30" rx="15" fill="#111827"/>
  <clipPath id="screen"><rect x="2" y="2" width="386" height="840" rx="38"/></clipPath>
  <g clip-path="url(#screen)">
  <rect x="20" y="200" width="350" height="262.5" fill="#6b7280"/><clipPath id="img2"><rect x="20" y="200" width="350" height="262.5"/></clipPath><g clip-path="url(#img2)"><g transform="rotate(90 195.0 331.25)"><g transform="rotate(-4 195.0 331.25)" opacity="1.0"><rect x="93.75" y="196.25" width="202.5" height="270" fill="#fdfdf7"/><rect x="111.75" y="226.25" width="152" height="4" rx="2" fill="#9ca3af"/><rect x="111.75" y="243.25" width="152" height="4" rx="2" fill="#9ca3af"/><rect x="111.75" y="260.25" width="152" height="4" rx="2" fill="#9ca3af"/><rect x="111.75" y="277.25" width="91" height="4" rx="2" fill="#9ca3af"/><rect x="111.75" y="294.25" width="152" height="4" rx="2" fill="#9ca3af"/><rect x="111.75" y="311.25" width="152" height="4" rx="2" fill="#9ca3af"/><rect x="111.75" y="328.25" width="152" height="4" rx="2" fill="#9ca3af"/><rect x="111.75" y="345.25" width="91" height="4" rx="2" fill="#9ca3af"/><rect x="111.75" y="362.25" width="152" height="4" rx="2" fill="#9ca3af"/><rect x="111.75" y="379.25" width="152" height="4" rx="2" fill="#9ca3af"/><rect x="111.75" y="396.25" width="152" height="4" rx="2" fill="#9ca3af"/><rect x="111.75" y="413.25" width="91" height="4" rx="2" fill="#9ca3af"/><rect x="111.75" y="430.25" width="152" height="4" rx="2" fill="#9ca3af"/></g></g></g><g transform="rotate(0 195.0 331.25)"><rect x="37.5" y="219.8796139159949" width="315.0" height="222.7407721680102" fill="none" stroke="#facc15" stroke-width="3" stroke-dasharray="10 8"/><circle cx="37.5" cy="219.8796139159949" r="9" fill="#facc15" stroke="#111827" stroke-width="1.5"/><circle cx="352.5" cy="219.8796139159949" r="9" fill="#facc15" stroke="#111827" stroke-width="1.5"/><circle cx="37.5" cy="442.6203860840051" r="9" fill="#facc15" stroke="#111827" stroke-width="1.5"/><circle cx="352.5" cy="442.6203860840051" r="9" fill="#facc15" stroke="#111827" stroke-width="1.5"/><circle cx="195.0" cy="219.8796139159949" r="9" fill="#facc15" stroke="#111827" stroke-width="1.5"/><circle cx="195.0" cy="442.6203860840051" r="9" fill="#facc15" stroke="#111827" stroke-width="1.5"/><circle cx="37.5" cy="331.25" r="9" fill="#facc15" stroke="#111827" stroke-width="1.5"/><circle cx="352.5" cy="331.25" r="9" fill="#facc15" stroke="#111827" stroke-width="1.5"/></g><circle cx="55" cy="740" r="32" fill="#ffffff" stroke="#d1d5db" stroke-width="1.5"/><g transform="translate(41.0,726.0) scale(1.167)" fill="none" stroke="#111827" stroke-width="2" stroke-linecap="round" stroke-linejoin="round"><path d="M19 12H5"/><path d="M12 19l-7-7 7-7"/></g><rect x="90.0" y="716.0" width="120" height="48" rx="12" fill="#f3f4f6" stroke="#d1d5db" stroke-width="1.5"/><rect x="94.0" y="720.0" width="52.0" height="40" rx="9" fill="#1e40af"/><g transform="translate(108.0,728.0) scale(1.000)" fill="none" stroke="#ffffff" stroke-width="2" stroke-linecap="round" stroke-linejoin="round"><path d="M6 2v14a2 2 0 0 0 2 2h14"/><path d="M18 22V8a2 2 0 0 0-2-2H2"/></g><g transform="translate(168.0,728.0) scale(1.000)" fill="none" stroke="#374151" stroke-width="2" stroke-linecap="round" stroke-linejoin="round"><path d="M21 12a9 9 0 1 1-3-6.7"/><path d="M21 3v6h-6"/></g><circle cx="250" cy="740" r="32" fill="#ffffff" stroke="#d1d5db" stroke-width="1.5"/><g transform="translate(236.0,726.0) scale(1.167)" fill="none" stroke="#111827" stroke-width="2" stroke-linecap="round" stroke-linejoin="round"><rect x="3" y="9" width="9" height="12" rx="1"/><path d="M8 4h6a4 4 0 0 1 4 4v3"/><path d="M15 8l3 3 3-3"/></g><circle cx="335" cy="740" r="32" fill="#1e40af" stroke="#1e40af" stroke-width="1.5"/><g transform="translate(321.0,726.0) scale(1.167)" fill="none" stroke="#ffffff" stroke-width="2" stroke-linecap="round" stroke-linejoin="round"><path d="M20 6L9 17l-5-5"/></g>
  </g>
  <rect x="140" y="828" width="110" height="5" rx="2.5" fill="#111827"/>
  <text x="195.0" y="884" text-anchor="middle" font-size="15" fill="#374151">After one 90° tap: image and frame turned.</text>
</svg>
