<svg xmlns="http://www.w3.org/2000/svg" viewBox="0 0 390 914" width="390" height="914" font-family="-apple-system, Helvetica, Arial, sans-serif">
  <title>v0.3 Grayscale toggle</title>
  <rect x="0" y="0" width="390" height="844" rx="40" fill="#ffffff" stroke="#111827" stroke-width="3"/>
  <rect x="130" y="14" width="130" height="30" rx="15" fill="#111827"/>
  <clipPath id="screen"><rect x="2" y="2" width="386" height="840" rx="38"/></clipPath>
  <g clip-path="url(#screen)">
  <filter id="warm" color-interpolation-filters="sRGB"><feColorMatrix type="matrix" values="1.12 0 0 0 0  0 1 0 0 0  0 0 0.88 0 0  0 0 0 1 0"/></filter><rect x="20" y="60" width="350" height="470" fill="#6b7280"/><clipPath id="bc"><rect x="20" y="60" width="350" height="470"/></clipPath><g clip-path="url(#bc)" filter="grayscale(1)"><g transform="rotate(-4 195.0 310.0)" opacity="1.0"><rect x="40" y="90" width="310" height="440" fill="#f4ecd8"/><rect x="58" y="120" width="232" height="4" rx="2" fill="#9ca3af"/><rect x="58" y="137" width="140" height="4" rx="2" fill="#9ca3af"/><rect x="58" y="154" width="232" height="4" rx="2" fill="#9ca3af"/><rect x="58" y="171" width="232" height="4" rx="2" fill="#9ca3af"/><rect x="58" y="188" width="232" height="4" rx="2" fill="#9ca3af"/><rect x="58" y="205" width="140" height="4" rx="2" fill="#9ca3af"/><rect x="58" y="222" width="232" height="4" rx="2" fill="#9ca3af"/><rect x="58" y="239" width="232" height="4" rx="2" fill="#9ca3af"/><rect x="58" y="256" width="232" height="4" rx="2" fill="#9ca3af"/><rect x="58" y="273" width="140" height="4" rx="2" fill="#9ca3af"/><rect x="58" y="290" width="232" height="4" rx="2" fill="#9ca3af"/><rect x="58" y="307" width="232" height="4" rx="2" fill="#9ca3af"/><rect x="58" y="324" width="232" height="4" rx="2" fill="#9ca3af"/><rect x="58" y="341" width="140" height="4" rx="2" fill="#9ca3af"/><rect x="58" y="358" width="232" height="4" rx="2" fill="#9ca3af"/><rect x="58" y="375" width="232" height="4" rx="2" fill="#9ca3af"/><rect x="58" y="392" width="232" height="4" rx="2" fill="#9ca3af"/><rect x="58" y="409" width="140" height="4" rx="2" fill="#9ca3af"/><rect x="58" y="426" width="232" height="4" rx="2" fill="#9ca3af"/><rect x="58" y="443" width="232" height="4" rx="2" fill="#9ca3af"/><rect x="58" y="460" width="232" height="4" rx="2" fill="#9ca3af"/><rect x="58" y="477" width="140" height="4" rx="2" fill="#9ca3af"/><rect x="58" y="494" width="232" height="4" rx="2" fill="#9ca3af"/></g></g><rect x="50" y="617" width="290" height="6" rx="3" fill="#e5e7eb"/><rect x="50" y="617" width="180" height="6" rx="3" fill="#1e40af"/><circle cx="230" cy="620" r="14" fill="#ffffff" stroke="#1e40af" stroke-width="2"/><line x1="195.0" y1="610" x2="195.0" y2="630" stroke="#9ca3af" stroke-width="1"/><circle cx="40" cy="740" r="26" fill="#ffffff" stroke="#d1d5db" stroke-width="1.5"/><g transform="translate(28.0,728.0) scale(1.000)" fill="none" stroke="#111827" stroke-width="2" stroke-linecap="round" stroke-linejoin="round"><path d="M19 12H5"/><path d="M12 19l-7-7 7-7"/></g><rect x="75.0" y="718.0" width="150" height="44" rx="12" fill="#f3f4f6" stroke="#d1d5db" stroke-width="1.5"/><rect x="79.0" y="722.0" width="42.0" height="36" rx="9" fill="#1e40af"/><g transform="translate(88.0,728.0) scale(1.000)" fill="none" stroke="#ffffff" stroke-width="2" stroke-linecap="round" stroke-linejoin="round"><circle cx="12" cy="12" r="4"/><path d="M12 2v2M12 20v2M4.93 4.93l1.41 1.41M17.66 17.66l1.41 1.41M2 12h2M20 12h2M6.34 17.66l-1.41 1.41M19.07 4.93l-1.41 1.41"/></g><g transform="translate(138.0,728.0) scale(1.000)" fill="none" stroke="#374151" stroke-width="2" stroke-linecap="round" stroke-linejoin="round"><circle cx="12" cy="12" r="9"/><path d="M12 3a9 9 0 0 1 0 18z" fill="currentColor"/></g><g transform="translate(188.0,728.0) scale(1.000)" fill="none" stroke="#374151" stroke-width="2" stroke-linecap="round" stroke-linejoin="round"><path d="M14 14.8V4a2 2 0 0 0-4 0v10.8a4 4 0 1 0 4 0z"/><path d="M12 9v6"/></g><circle cx="275" cy="740" r="26" fill="#1e40af" stroke="#1e40af" stroke-width="1.5"/><g transform="translate(263.0,728.0) scale(1.000)" fill="none" stroke="#ffffff" stroke-width="2" stroke-linecap="round" stroke-linejoin="round"><path d="M12 2.7l5.7 6.4a7.5 7.5 0 1 1-11.4 0z"/><path d="M4 4l16 16"/></g><circle cx="345" cy="740" r="26" fill="#1e40af" stroke="#1e40af" stroke-width="1.5"/><g transform="translate(333.0,728.0) scale(1.000)" fill="none" stroke="#ffffff" stroke-width="2" stroke-linecap="round" stroke-linejoin="round"><path d="M20 6L9 17l-5-5"/></g>
  </g>
  <rect x="140" y="828" width="110" height="5" rx="2.5" fill="#111827"/>
  <text x="195.0" y="884" text-anchor="middle" font-size="15" fill="#374151">Grayscale toggle on: colour dropped, values still apply.</text>
</svg>
