<svg xmlns="http://www.w3.org/2000/svg" viewBox="0 0 390 914" width="390" height="914" font-family="-apple-system, Helvetica, Arial, sans-serif">
  <title>v0.6 Loupe while dragging a corner</title>
  <rect x="0" y="0" width="390" height="844" rx="40" fill="#ffffff" stroke="#111827" stroke-width="3"/>
  <rect x="130" y="14" width="130" height="30" rx="15" fill="#111827"/>
  <clipPath id="screen"><rect x="2" y="2" width="386" height="840" rx="38"/></clipPath>
  <g clip-path="url(#screen)">
  <rect x="20" y="60" width="350" height="466.6666666666667" fill="#6b7280"/><clipPath id="img"><rect x="20" y="60" width="350" height="466.6666666666667"/></clipPath><g clip-path="url(#img)" ><g transform="rotate(-4 195.0 293.33333333333337)" opacity="1.0"><rect x="55" y="105" width="280" height="376.6666666666667" fill="#fdfdf7"/><rect x="73" y="135" width="210" height="4" rx="2" fill="#9ca3af"/><rect x="73" y="152" width="126" height="4" rx="2" fill="#9ca3af"/><rect x="73" y="169" width="210" height="4" rx="2" fill="#9ca3af"/><rect x="73" y="186" width="210" height="4" rx="2" fill="#9ca3af"/><rect x="73" y="203" width="210" height="4" rx="2" fill="#9ca3af"/><rect x="73" y="220" width="126" height="4" rx="2" fill="#9ca3af"/><rect x="73" y="237" width="210" height="4" rx="2" fill="#9ca3af"/><rect x="73" y="254" width="210" height="4" rx="2" fill="#9ca3af"/><rect x="73" y="271" width="210" height="4" rx="2" fill="#9ca3af"/><rect x="73" y="288" width="126" height="4" rx="2" fill="#9ca3af"/><rect x="73" y="305" width="210" height="4" rx="2" fill="#9ca3af"/><rect x="73" y="322" width="210" height="4" rx="2" fill="#9ca3af"/><rect x="73" y="339" width="210" height="4" rx="2" fill="#9ca3af"/><rect x="73" y="356" width="126" height="4" rx="2" fill="#9ca3af"/><rect x="73" y="373" width="210" height="4" rx="2" fill="#9ca3af"/><rect x="73" y="390" width="210" height="4" rx="2" fill="#9ca3af"/><rect x="73" y="407" width="210" height="4" rx="2" fill="#9ca3af"/><rect x="73" y="424" width="126" height="4" rx="2" fill="#9ca3af"/><rect x="73" y="441" width="210" height="4" rx="2" fill="#9ca3af"/><rect x="73" y="458" width="210" height="4" rx="2" fill="#9ca3af"/></g></g><g transform="rotate(0 197.0 302.0)"><rect x="52" y="92" width="290" height="420" fill="none" stroke="#facc15" stroke-width="3" stroke-dasharray="10 8"/><circle cx="52" cy="92" r="9" fill="#facc15" stroke="#111827" stroke-width="1.5"/><circle cx="342" cy="92" r="9" fill="#facc15" stroke="#111827" stroke-width="1.5"/><circle cx="52" cy="512" r="9" fill="#facc15" stroke="#111827" stroke-width="1.5"/><circle cx="342" cy="512" r="9" fill="#facc15" stroke="#111827" stroke-width="1.5"/><circle cx="197.0" cy="92" r="9" fill="#facc15" stroke="#111827" stroke-width="1.5"/><circle cx="197.0" cy="512" r="9" fill="#facc15" stroke="#111827" stroke-width="1.5"/><circle cx="52" cy="302.0" r="9" fill="#facc15" stroke="#111827" stroke-width="1.5"/><circle cx="342" cy="302.0" r="9" fill="#facc15" stroke="#111827" stroke-width="1.5"/></g><circle cx="52" cy="92" r="16" fill="#ffffff" stroke="#111827" stroke-width="2" opacity="0.85"/><clipPath id="lpa"><circle cx="195.0" cy="330" r="46"/></clipPath><g clip-path="url(#lpa)"><rect x="147.0" y="282" width="96" height="96" fill="#6b7280"/><g transform="rotate(-4 202.0 335)"><rect x="202.0" y="335" width="200" height="200" fill="#fdfdf7"/><rect x="216.0" y="349" width="172" height="4" rx="2" fill="#9ca3af"/><rect x="216.0" y="362" width="172" height="4" rx="2" fill="#9ca3af"/><rect x="216.0" y="375" width="172" height="4" rx="2" fill="#9ca3af"/><rect x="216.0" y="388" width="172" height="4" rx="2" fill="#9ca3af"/><rect x="216.0" y="401" width="172" height="4" rx="2" fill="#9ca3af"/><rect x="216.0" y="414" width="172" height="4" rx="2" fill="#9ca3af"/><rect x="216.0" y="427" width="172" height="4" rx="2" fill="#9ca3af"/><rect x="216.0" y="440" width="172" height="4" rx="2" fill="#9ca3af"/><rect x="216.0" y="453" width="172" height="4" rx="2" fill="#9ca3af"/><rect x="216.0" y="466" width="172" height="4" rx="2" fill="#9ca3af"/><rect x="216.0" y="479" width="172" height="4" rx="2" fill="#9ca3af"/><rect x="216.0" y="492" width="172" height="4" rx="2" fill="#9ca3af"/><rect x="216.0" y="505" width="172" height="4" rx="2" fill="#9ca3af"/><rect x="216.0" y="518" width="172" height="4" rx="2" fill="#9ca3af"/></g><g transform="rotate(0 195.0 330)"><path d="M195.0 330h200M195.0 330v200" fill="none" stroke="#facc15" stroke-width="3" stroke-dasharray="10 8"/></g></g><circle cx="195.0" cy="330" r="49" fill="none" stroke="#ffffff" stroke-width="5"/><circle cx="195.0" cy="330" r="48" fill="none" stroke="#111827" stroke-width="3"/><circle cx="55" cy="740" r="32" fill="#ffffff" stroke="#d1d5db" stroke-width="1.5"/><g transform="translate(41.0,726.0) scale(1.167)" fill="none" stroke="#111827" stroke-width="2" stroke-linecap="round" stroke-linejoin="round"><path d="M19 12H5"/><path d="M12 19l-7-7 7-7"/></g><rect x="90.0" y="716.0" width="120" height="48" rx="12" fill="#f3f4f6" stroke="#d1d5db" stroke-width="1.5"/><rect x="94.0" y="720.0" width="52.0" height="40" rx="9" fill="#1e40af"/><g transform="translate(108.0,728.0) scale(1.000)" fill="none" stroke="#ffffff" stroke-width="2" stroke-linecap="round" stroke-linejoin="round"><path d="M6 2v14a2 2 0 0 0 2 2h14"/><path d="M18 22V8a2 2 0 0 0-2-2H2"/></g><g transform="translate(168.0,728.0) scale(1.000)" fill="none" stroke="#374151" stroke-width="2" stroke-linecap="round" stroke-linejoin="round"><path d="M21 12a9 9 0 1 1-3-6.7"/><path d="M21 3v6h-6"/></g><circle cx="250" cy="740" r="32" fill="#ffffff" stroke="#d1d5db" stroke-width="1.5"/><g transform="translate(236.0,726.0) scale(1.167)" fill="none" stroke="#111827" stroke-width="2" stroke-linecap="round" stroke-linejoin="round"><rect x="3" y="9" width="9" height="12" rx="1"/><path d="M8 4h6a4 4 0 0 1 4 4v3"/><path d="M15 8l3 3 3-3"/></g><circle cx="335" cy="740" r="32" fill="#1e40af" stroke="#1e40af" stroke-width="1.5"/><g transform="translate(321.0,726.0) scale(1.167)" fill="none" stroke="#ffffff" stroke-width="2" stroke-linecap="round" stroke-linejoin="round"><path d="M20 6L9 17l-5-5"/></g>
  </g>
  <rect x="140" y="828" width="110" height="5" rx="2.5" fill="#111827"/>
  <text x="195.0" y="884" text-anchor="middle" font-size="15" fill="#374151">Corner drag: one loupe, frame corner at its centre.</text>
</svg>
